Coordinates
version=1
nRows=8
nColumns=33
inDegrees=yes

Units are S.I. units (second, meters, Newtons, ...)
Angles are in degrees.

endheader
time	ground_thorax_rot_x	ground_thorax_rot_y	ground_thorax_rot_z	ground_thorax_tx	ground_thorax_ty	ground_thorax_tz	clav_prot_r	clav_elev_r	scapula_abduction_r	scapula_elevation_r	scapula_upward_rot_r	scapula_winging_r	shoulder_elv_r	plane_of_elev_r	axial_rot_r	elbow_flexion_r	pro_sup_r	wrist_flex_r	wrist_dev_r	clav_prot_l	clav_elev_l	scapula_abduction_l	scapula_elevation_l	scapula_upward_rot_l	scapula_winging_l	shoulder_elv_l	plane_of_elev_l	axial_rot_l	elbow_flexion_l	pro_sup_l	wrist_flex_l	wrist_dev_l
      2.01000000	      1.34648626	     -0.86032752	     -7.29564704	     -0.07736505	      1.05253455	     -0.00309346	    -12.47619647	     -7.92617986	    -11.08751878	     -2.45104412	      8.25645809	     -0.00172248	     57.67978244	    -45.40843564	     64.56815574	     67.04314996	      7.89263221	     17.05885536	     11.30005167	     -5.11749999	     -5.58418181	      2.54689084	     -3.17541320	     -4.22911813	     -0.75083980	     60.72459153	    -53.88529495	    -47.54824904	     67.65298723	      5.22836008	      3.20122566	    -24.99999983
      2.02000000	      1.27804514	     -0.87137229	     -7.65350470	     -0.07729141	      1.05234558	     -0.00305443	    -12.45091012	     -7.71949919	    -10.89685792	     -2.38285295	      8.61840716	     -0.16657191	     57.92676984	    -45.18353354	     64.65024726	     68.16876469	      7.86589674	     17.30267384	     11.33726336	     -5.09296086	     -5.35120844	      2.41889347	     -3.25778699	     -3.88007254	     -0.60682200	     61.04632579	    -53.79545350	    -47.54318856	     68.69294022	      5.15035699	      3.16283217	    -24.99999983
      2.03000000	      1.23865758	     -0.89515127	     -7.86151425	     -0.07717798	      1.05202667	     -0.00306907	    -12.43208318	     -7.42637801	    -10.70141951	     -2.25681661	      9.03997673	     -0.38039054	     58.29111562	    -45.03286820	     64.83971594	     69.37186615	      7.85552319	     17.53870641	     11.46186369	     -5.05637794	     -5.04198846	      2.28618247	     -3.41272658	     -3.54004275	     -0.44133715	     61.36486589	    -53.79209579	    -47.63481294	     69.87596755	      5.07417728	      3.14635133	    -24.99999983
      2.04000000	      1.51401785	     -0.95049632	     -7.78087566	     -0.07675175	      1.05273551	     -0.00298579	    -12.55382611	     -7.58057978	    -10.55763922	     -2.60087459	      9.66124103	     -0.44264910	     60.23800654	    -45.29904333	     66.44472356	     71.38928363	      8.58330336	     16.79792348	     13.02333251	     -5.13158206	     -5.53917034	      2.22145683	     -2.85280333	     -3.24866927	     -0.51692036	     62.38135915	    -54.59996014	    -48.72677763	     71.10923950	      4.73068510	      3.27785616	    -24.99999983
      2.05000000	      1.40331146	     -0.97650472	     -7.95708528	     -0.07650665	      1.05243190	     -0.00296573	    -12.55204476	     -7.28816728	    -10.41974146	     -2.45407696	     10.02140920	     -0.64238913	     60.54182466	    -45.04724738	     66.51871152	     72.62211300	      8.54564489	     17.06498303	     13.10196387	     -5.11787025	     -5.17486831	      2.13365176	     -3.05710575	     -2.90668065	     -0.34643169	     62.74914195	    -54.55941204	    -48.75294896	     72.31201704	      4.61844616	      3.24121922	    -24.99999983
      2.06000000	      1.40743759	     -0.99564505	     -7.68638740	     -0.07651104	      1.05232996	     -0.00287505	    -12.48333482	     -6.89878237	    -10.20578820	     -2.20708267	     10.34286488	     -0.87713208	     61.45324171	    -44.88358354	     67.34076898	     74.15856308	      8.76846389	     17.09859802	     13.85062530	     -5.04332341	     -4.87885004	      1.96682538	     -3.23914694	     -2.67060688	     -0.19158148	     63.33506534	    -54.75819103	    -49.30296758	     73.47068266	      4.31356306	      3.30346295	    -24.99999983
      2.07000000	      1.49362232	     -1.01465888	     -8.04254065	     -0.07579430	      1.05293699	     -0.00277059	    -12.67243950	     -7.29767870	    -10.41930954	     -2.59116525	     10.40918178	     -0.70874940	     63.19881155	    -44.47235858	     68.04935608	     76.08616943	      9.28908858	     16.60295056	     15.04896276	     -5.20592190	     -5.32348662	      2.10788583	     -2.77004961	     -2.49582241	     -0.32375718	     64.43748380	    -54.99278212	    -49.93322892	     74.71665676	      3.04850799	      3.28006269	    -24.99999983
      2.08000000	      1.39332872	     -1.04304510	     -8.21705853	     -0.07562718	      1.05274105	     -0.00268326	    -12.62604381	     -7.01006754	    -10.18645981	     -2.45660146	     10.79816280	     -0.91524613	     63.46623511	    -44.12796965	     68.09731838	     77.31043765	      9.19111188	     16.92272672	     15.05809799	     -5.15104273	     -4.98514186	      1.93723463	     -2.94803698	     -2.14458029	     -0.13518100	     64.77139246	    -54.81660176	    -49.95398799	     75.84634424	      2.91428360	      3.26188175	    -24.99999983
